<?xml version="1.0" standalone="no"?>
<!DOCTYPE svg PUBLIC "-//W3C//DTD SVG 20010904//EN"
 "http://www.w3.org/TR/2001/REC-SVG-20010904/DTD/svg10.dtd">
<svg version="1.0" xmlns="http://www.w3.org/2000/svg"
 width="117.000000pt" height="117.000000pt" viewBox="0 0 117.000000 117.000000"
 preserveAspectRatio="xMidYMid meet">
<metadata>
Created by potrace 1.14, written by Peter Selinger 2001-2017
</metadata>
<g transform="translate(0.000000,117.000000) scale(0.100000,-0.100000)"
fill="#000000" stroke="none">
<path d="M563 1128 c-20 -25 -63 -161 -58 -179 8 -24 25 -15 18 9 -2 11 6 31
20 48 13 16 26 36 29 44 4 11 8 8 16 -10 5 -14 17 -32 26 -39 9 -8 16 -29 16
-49 0 -33 1 -34 14 -17 12 17 10 30 -18 109 -32 91 -45 107 -63 84z"/>
<path d="M205 1101 c-7 -13 61 -203 77 -212 14 -9 117 -24 123 -18 4 5 7 62 6
104 -1 28 -10 36 -92 83 -95 54 -104 58 -114 43z m168 -151 c-3 -41 -5 -43
-42 -35 -25 5 -33 15 -51 61 -11 30 -20 59 -20 64 0 5 26 -6 58 -25 52 -30 57
-37 55 -65z"/>
<path d="M828 1057 l-88 -51 0 -70 0 -69 54 7 c30 3 61 9 70 12 13 5 65 130
82 199 9 37 -17 31 -118 -28z m42 -80 c-17 -46 -26 -57 -50 -62 -16 -4 -34 -4
-39 -1 -13 8 -4 68 11 78 62 38 93 53 96 47 1 -3 -7 -31 -18 -62z"/>
<path d="M557 982 c-15 -16 -17 -53 -17 -310 l0 -292 35 0 35 0 0 294 c0 254
-2 297 -16 310 -19 20 -17 20 -37 -2z"/>
<path d="M660 659 l0 -276 35 -1 35 -1 0 242 0 243 -35 34 -35 34 0 -275z"/>
<path d="M454 888 l-30 -33 1 -235 1 -235 24 -1 c14 0 30 1 36 3 11 4 16 533
4 533 -3 0 -20 -15 -36 -32z"/>
<path d="M385 824 c-5 -1 -67 -4 -138 -7 -70 -2 -129 -6 -132 -9 -12 -12 11
-37 100 -106 67 -52 99 -71 109 -65 20 11 13 19 -67 82 -37 29 -66 55 -65 57
2 2 47 4 100 5 52 1 100 4 105 8 13 8 2 39 -12 35z"/>
<path d="M763 823 c-7 -3 -13 -13 -13 -22 0 -16 12 -18 107 -20 59 -1 108 -3
110 -5 2 -1 -31 -29 -72 -61 -70 -53 -84 -74 -58 -82 5 -2 56 33 113 78 127
101 125 106 -47 108 -64 1 -119 3 -122 5 -3 2 -12 1 -18 -1z"/>
<path d="M779 652 c0 -4 -1 -72 -2 -152 l-2 -145 36 -39 36 -39 0 156 0 157
-33 34 c-19 19 -34 32 -35 28z"/>
<path d="M337 622 c-27 -28 -27 -28 -27 -187 l0 -159 35 37 35 37 0 150 c0 83
-4 150 -8 150 -5 0 -20 -13 -35 -28z"/>
<path d="M401 584 c0 -11 3 -14 6 -6 3 7 2 16 -1 19 -3 4 -6 -2 -5 -13z"/>
<path d="M747 580 c3 -11 7 -20 9 -20 2 0 4 9 4 20 0 11 -4 20 -9 20 -5 0 -7
-9 -4 -20z"/>
<path d="M940 583 c-30 -8 -59 -18 -63 -22 -9 -9 28 -105 47 -120 17 -14 222
-26 229 -14 6 10 -28 48 -114 129 l-44 41 -55 -14z m95 -74 l50 -51 -60 6
c-33 3 -65 5 -72 5 -9 1 -38 61 -31 66 2 1 17 7 33 13 17 6 30 11 30 11 1 1
23 -22 50 -50z"/>
<path d="M72 507 c-39 -40 -72 -79 -72 -86 0 -11 19 -13 103 -8 57 4 111 9
119 12 8 3 26 30 40 60 28 60 26 64 -31 84 -66 22 -82 16 -159 -62z m149 -15
c-18 -35 -20 -36 -85 -39 l-67 -4 47 49 c46 48 48 49 85 39 l38 -9 -18 -36z"/>
<path d="M631 404 c0 -11 3 -14 6 -6 3 7 2 16 -1 19 -3 4 -6 -2 -5 -13z"/>
<path d="M364 311 c-45 -49 -53 -54 -68 -42 -11 9 -16 10 -16 2 0 -28 34 -19
109 31 45 29 81 56 81 59 0 3 -12 5 -27 5 -21 0 -41 -14 -79 -55z"/>
<path d="M690 360 c0 -10 151 -110 166 -110 7 0 15 8 19 18 5 14 4 15 -6 5
-20 -20 -25 -17 -81 39 -30 30 -63 53 -75 54 -13 0 -23 -2 -23 -6z"/>
<path d="M540 328 c-62 -66 -62 -62 -18 -176 29 -74 44 -102 55 -100 9 2 28
42 49 102 19 55 34 102 34 105 0 12 -76 91 -87 91 -7 0 -22 -10 -33 -22z m58
-139 l-21 -64 -27 60 -27 60 24 32 25 32 24 -28 24 -28 -22 -64z"/>
</g>
</svg>
